<svg xmlns="http://www.w3.org/2000/svg" id="Layer_1" data-name="Layer 1" viewBox="0 0 55.74 55.24"><path fill="#289ed8" d="M52.14 54.43H29.36a3.11 3.11 0 0 1-3.1-3.1V3.6a3.11 3.11 0 0 1 3.1-3.1h22.78a3.11 3.11 0 0 1 3.1 3.1v47.73a3.11 3.11 0 0 1-3.1 3.1Z"/><path fill="#123456" d="M52.14 54.93H29.36a3.6 3.6 0 0 1-3.6-3.6V3.6a3.6 3.6 0 0 1 3.6-3.6h22.78a3.6 3.6 0 0 1 3.6 3.6v47.73a3.6 3.6 0 0 1-3.6 3.6ZM29.36 1a2.6 2.6 0 0 0-2.6 2.6v47.73a2.6 2.6 0 0 0 2.6 2.6h22.78a2.6 2.6 0 0 0 2.6-2.6V3.6a2.6 2.6 0 0 0-2.6-2.6Z"/><path fill="#92d0ee" d="M49.04 54.43H26.26a3.11 3.11 0 0 1-3.1-3.1V3.6a3.11 3.11 0 0 1 3.1-3.1h22.78a3.11 3.11 0 0 1 3.1 3.1v47.73a3 3 0 0 1-3.1 3.1Z"/><path fill="#d9f0f9" d="M23.16 9.02h28.98v39.21H23.16z"/><path fill="#123456" d="M52.14 48.73h-29a.5.5 0 0 1-.5-.5V9.02a.5.5 0 0 1 .5-.5h29a.5.5 0 0 1 .5.5v39.21a.5.5 0 0 1-.5.5Zm-28.52-1h28V9.52h-28Z"/><path fill="#ffcc05" d="M52.14 47.85h-7.9a1.41 1.41 0 0 1-1.09-.46l-.15-.16-.16-.11c0-.16-.15-.16-.15-.31a2.14 2.14 0 0 1-.31-.93v-1.13a1.64 1.64 0 0 1 .31-.93c0-.15.15-.15.15-.31l.16-.15.15-.16a1.56 1.56 0 0 1 .64-.38 1.52 1.52 0 0 1 .44-.08h7.9Z"/><path fill="#123456" d="M52.14 48.35h-7.9a1.9 1.9 0 0 1-1.44-.61l-.3-.3a.5.5 0 0 1-.14-.23.68.68 0 0 1-.15-.29 2.39 2.39 0 0 1-.33-1.08v-1.09a2.27 2.27 0 0 1 .35-1.15.72.72 0 0 1 .13-.23.49.49 0 0 1 .14-.23l.29-.29a2.07 2.07 0 0 1 .86-.52h.05a1.94 1.94 0 0 1 .54-.09h7.9a.5.5 0 0 1 .5.5v5.08a.5.5 0 0 1-.5.53Zm-8.85-1.53.23.23a.9.9 0 0 0 .73.3h7.37v-4.09h-7.4a1 1 0 0 0-.29.06 1.06 1.06 0 0 0-.4.24l-.21.22a.72.72 0 0 1-.12.2.51.51 0 0 1-.12.2 1.3 1.3 0 0 0-.16.58v1.09a1.77 1.77 0 0 0 .25.7v.08a.73.73 0 0 1 .12.19Z"/><path fill="none" d="M23.16 9.02h28.98v39.21H23.16z"/><path fill="#ffcc05" d="M44.24 42.89a1.2 1.2 0 0 1-.44-.07 1.36 1.36 0 0 1-.64-.39l-.15-.16-.17-.15c0-.16-.15-.16-.15-.31a2.14 2.14 0 0 1-.31-.93v-1.09a1.64 1.64 0 0 1 .31-.93c0-.15.15-.15.15-.31l.16-.15.15-.16a1.68 1.68 0 0 1 1.09-.46h7.9v5.11Z"/><path fill="#123456" d="M52.14 43.39h-7.9a1.75 1.75 0 0 1-.56-.08 1.84 1.84 0 0 1-.87-.52l-.3-.3a.5.5 0 0 1-.14-.23.68.68 0 0 1-.15-.29 2.39 2.39 0 0 1-.33-1.08v-1.1a2.27 2.27 0 0 1 .35-1.15.72.72 0 0 1 .13-.23.49.49 0 0 1 .14-.23l.29-.29a2.18 2.18 0 0 1 1.45-.62h7.9a.5.5 0 0 1 .5.5v5.11a.5.5 0 0 1-.51.51Zm-8.25-1.06h.09a.72.72 0 0 0 .26 0h7.38v-4.05h-7.4a1.18 1.18 0 0 0-.74.31l-.22.22a.72.72 0 0 1-.12.2.51.51 0 0 1-.12.2 1.3 1.3 0 0 0-.16.58v1.09a1.77 1.77 0 0 0 .25.7v.08a.73.73 0 0 1 .12.19l.23.23a.86.86 0 0 0 .43.25Z"/><path fill="none" d="M23.16 9.02h28.98v39.21H23.16z"/><path fill="#ffcc05" d="M52.14 32.63v5.15h-7.9a1.41 1.41 0 0 1-1.09-.47l-.15-.19-.16-.16c0-.15-.15-.15-.15-.31a2.14 2.14 0 0 1-.31-.93v-1.04a1.61 1.61 0 0 1 .31-.93c0-.16.15-.16.15-.31l.16-.16.15-.15a1.56 1.56 0 0 1 .64-.38 1.33 1.33 0 0 1 .45-.09Z"/><path fill="#123456" d="M52.14 38.28h-7.9a1.91 1.91 0 0 1-1.44-.62l-.31-.31a.51.51 0 0 1-.12-.2.71.71 0 0 1-.16-.31 2.4 2.4 0 0 1-.33-1.08v-1.08a2.23 2.23 0 0 1 .35-1.15.69.69 0 0 1 .14-.24.49.49 0 0 1 .12-.2l.31-.31a2.08 2.08 0 0 1 .85-.5 1.77 1.77 0 0 1 .6-.11h7.9a.44.44 0 0 1 .35.15.5.5 0 0 1 .15.35v5.15a.5.5 0 0 1-.51.46Zm-8.85-1.54.21.21a.93.93 0 0 0 .74.32h7.38v-4.15h-7.4a.85.85 0 0 0-.28.06 1.12 1.12 0 0 0-.46.26l-.21.21a.71.71 0 0 1-.12.19.49.49 0 0 1-.14.23 1.41 1.41 0 0 0-.15.57v1.08a1.77 1.77 0 0 0 .25.7v.09a.7.7 0 0 1 .18.23Z"/><path fill="none" d="M23.16 9.02h28.98v39.21H23.16z"/><path fill="#ffcc05" d="M52.14 32.82h-7.9a1.25 1.25 0 0 1-.45-.07 1.38 1.38 0 0 1-.64-.4L43 32.2l-.16-.16c0-.15-.15-.15-.15-.31a2.14 2.14 0 0 1-.31-.93v-1.08a1.61 1.61 0 0 1 .31-.93c0-.16.15-.16.15-.31l.16-.16.15-.15a1.69 1.69 0 0 1 1.09-.47h7.9Z"/><path fill="#123456" d="M52.14 33.32h-7.9a1.74 1.74 0 0 1-.63-.1 1.82 1.82 0 0 1-.81-.51l-.31-.31a.5.5 0 0 1-.12-.21.7.7 0 0 1-.16-.31 2.4 2.4 0 0 1-.33-1.08v-1.08a2.23 2.23 0 0 1 .35-1.15.69.69 0 0 1 .14-.24.49.49 0 0 1 .12-.2l.31-.31a2.18 2.18 0 0 1 1.44-.62h7.9a.5.5 0 0 1 .5.5v5.12a.5.5 0 0 1-.5.5Zm-8.85-1.54.21.21a1 1 0 0 0 .74.32h7.38V28.2h-7.4a1.21 1.21 0 0 0-.74.32l-.21.21a.71.71 0 0 1-.12.19.49.49 0 0 1-.14.23 1.41 1.41 0 0 0-.15.57v1.08a1.77 1.77 0 0 0 .25.7v.09a.73.73 0 0 1 .18.19Z"/><path fill="none" d="M23.16 9.02h28.98v39.21H23.16z"/><path fill="#ffcc05" d="M42.07 44.75v1.08a2.05 2.05 0 0 1-2 2H29.36a1.41 1.41 0 0 1-1.08-.46l-.15-.15-.17-.1c0-.15-.15-.15-.15-.31a2.2 2.2 0 0 1-.31-.93v-1.13a1.66 1.66 0 0 1 .31-.93c0-.15.15-.15.15-.31l.15-.15.15-.15a1.67 1.67 0 0 1 1.08-.46h10.71a2.05 2.05 0 0 1 2.02 2Z"/><path fill="#123456" d="M40.05 48.35H29.36a1.9 1.9 0 0 1-1.44-.61l-.3-.31a.5.5 0 0 1-.12-.2.69.69 0 0 1-.16-.31 2.45 2.45 0 0 1-.33-1.08v-1.09a2.3 2.3 0 0 1 .34-1.15.7.7 0 0 1 .14-.25.5.5 0 0 1 .13-.23l.31-.31a2.18 2.18 0 0 1 1.44-.61h10.68a2.55 2.55 0 0 1 2.51 2.51v1.08a2.55 2.55 0 0 1-2.51 2.56Zm-11.63-1.53.21.21a.91.91 0 0 0 .73.32h10.69a1.55 1.55 0 0 0 1.51-1.51v-1.09a1.55 1.55 0 0 0-1.51-1.51H29.36a1.18 1.18 0 0 0-.73.32l-.21.21a.71.71 0 0 1-.13.2.5.5 0 0 1-.12.2 1.37 1.37 0 0 0-.16.58v1.08a1.87 1.87 0 0 0 .26.7v.08a.71.71 0 0 1 .15.21Z"/><path fill="none" d="M23.16 9.02h28.98v39.21H23.16z"/><path fill="#ffcc05" d="M42.07 39.79v1.08a2.05 2.05 0 0 1-2 2H29.36a1.41 1.41 0 0 1-1.08-.46l-.15-.15-.17-.14c0-.15-.15-.15-.15-.31a2.2 2.2 0 0 1-.31-.93v-1.09a1.66 1.66 0 0 1 .31-.93c0-.15.15-.15.15-.31l.15-.15.15-.15a1.67 1.67 0 0 1 1.08-.46h10.71a2.05 2.05 0 0 1 2.02 2Z"/><path fill="#123456" d="M40.05 43.39H29.36a1.91 1.91 0 0 1-1.44-.61l-.3-.31a.51.51 0 0 1-.12-.2.69.69 0 0 1-.16-.31 2.45 2.45 0 0 1-.33-1.08v-1.09a2.3 2.3 0 0 1 .34-1.15.7.7 0 0 1 .14-.25.5.5 0 0 1 .12-.2l.31-.31a2.18 2.18 0 0 1 1.44-.61h10.69a2.55 2.55 0 0 1 2.51 2.51v1.08a2.55 2.55 0 0 1-2.51 2.53Zm-11.63-1.53.2.26a.92.92 0 0 0 .73.32h10.7a1.55 1.55 0 0 0 1.51-1.51v-1.14a1.55 1.55 0 0 0-1.51-1.51H29.36a1.18 1.18 0 0 0-.73.32l-.21.21a.73.73 0 0 1-.13.21.5.5 0 0 1-.12.2 1.36 1.36 0 0 0-.16.58v1.08a1.92 1.92 0 0 0 .26.71v.07a.73.73 0 0 1 .15.2Z"/><path fill="none" d="M23.16 9.02h28.98v39.21H23.16z"/><path fill="#123456" d="M52.14 48.73h-29a.5.5 0 0 1-.5-.5V9.02a.5.5 0 0 1 .5-.5h29a.5.5 0 0 1 .5.5v39.21a.5.5 0 0 1-.5.5Zm-28.52-1h28V9.52h-28Z"/><path fill="#123456" d="M49.04 54.93H26.26a3.6 3.6 0 0 1-3.6-3.6V3.6a3.6 3.6 0 0 1 3.6-3.6h22.78a3.6 3.6 0 0 1 3.58 3.6v47.73a3.52 3.52 0 0 1-3.58 3.6ZM26.26 1a2.6 2.6 0 0 0-2.64 2.6v47.73a2.6 2.6 0 0 0 2.6 2.6h22.82a2.51 2.51 0 0 0 2.6-2.6V3.6a2.6 2.6 0 0 0-2.6-2.6Z"/><path fill="#123456" d="M42.84 5.8H32.62a.5.5 0 0 1 0-1h10.22a.5.5 0 0 1 0 1Z"/><circle cx="47.65" cy="5.3" r="1.08" fill="#123456"/><path fill="#faa919" d="M33.85 40.95a14.25 14.25 0 0 1-1.55 6.35 5.44 5.44 0 0 1-.77 1.24 10.86 10.86 0 0 1-1.24 1.58l-1.24 1.24a12.81 12.81 0 0 1-8.52 3.1h-5.74V27.31h5.73a13.65 13.65 0 0 1 9 3.56 9.35 9.35 0 0 1 1.23 1.25 16.23 16.23 0 0 1 1.24 1.7 23.41 23.41 0 0 1 1.39 2.79c.15.31.15.62.31.93.15.46.15.77.31 1.24a5.16 5.16 0 0 0-.15 2.17Z"/><path fill="#ffcc05" d="M30.62 32.42H20.53v-1.24h9a7.76 7.76 0 0 0 1.09 1.24ZM32.15 47.61a5.44 5.44 0 0 1-.77 1.24h-8.84v-1.24ZM33.7 39.12h-8.21v-1.27h7.9c.15.27.15.77.31 1.27ZM30.29 50.4l-1.24 1.24h-9.3V50.4ZM33.08 36.92h-9.76v-2.8h8.52a11.63 11.63 0 0 1 1.24 2.8Z"/><path fill="#123456" d="M20.37 55.24h-5.75a.5.5 0 0 1-.5-.5v-27a.5.5 0 0 1 .5-.5h5.73a13.79 13.79 0 0 1 9.93 4.16 13.54 13.54 0 0 1 3.9 9.83 13.92 13.92 0 0 1-13.81 14.01Zm-5.23-1h5.23a12.92 12.92 0 0 0 12.83-13 12.56 12.56 0 0 0-3.58-9.12 12.8 12.8 0 0 0-9.21-3.86h-5.27Z"/><circle cx="14.64" cy="41.26" r="13.48" fill="#ffcc05"/><path fill="#123456" d="M14.62 55.24a14 14 0 1 1 14-14 14 14 0 0 1-14 14Zm0-27a13 13 0 1 0 13 13 13 13 0 0 0-13-12.97Z"/><path fill="#123456" d="M15.57 47.46h-1.86a5.23 5.23 0 0 1-5.27-5.27v-1.86a1.395 1.395 0 0 1 2.79 0v1.86a2.72 2.72 0 0 0 2.63 2.63h1.86a2.72 2.72 0 0 0 2.63-2.63v-1.86a2.72 2.72 0 0 0-2.63-2.63h-1.86a1.395 1.395 0 0 1 0-2.79h1.86a5.23 5.23 0 0 1 5.27 5.27v1.86a5.49 5.49 0 0 1-5.42 5.42Z"/><path fill="#ffcc05" d="M4.72 29.55a1 1 0 0 1-.6-.2L.4 26.56a1.006 1.006 0 1 1 1.22-1.6l3.7 2.79a1 1 0 0 1-.6 1.8ZM9.06 26.45a1 1 0 0 1-.93-.63l-1.71-4.34a1 1 0 0 1 1.86-.73l1.71 4.37a1 1 0 0 1-.93 1.37ZM14.02 25.21a1 1 0 0 1-1-1l-.16-4.65a1 1 0 0 1 2-.07l.16 4.65a1 1 0 0 1-1 1Z"/></svg>