<svg id="Layer_1" data-name="Layer 1" xmlns="http://www.w3.org/2000/svg" viewBox="0 0 57.6 57.12"><path d="M27.31 5 5.16 9.63a1.21 1.21 0 0 0-.94 1.43L7 24.56l24.52-5.11L28.75 6a1.21 1.21 0 0 0-1.44-1z" transform="translate(-3.7 -3.94)" fill="#92cfeb"/><path d="m7 24.56.12.55L14 59a1.69 1.69 0 0 0 2 1.32l21.22-4.42a1.69 1.69 0 0 0 1.31-2l-7-34.48z" transform="translate(-3.7 -3.94)" fill="#d8eff7"/><path d="M16.81 39.71a.5.5 0 0 1-.49-.4L14 28a.5.5 0 1 1 1-.2l2.3 11.31a.5.5 0 0 1-.39.59zM22.63 38.5a.5.5 0 0 1-.49-.4l-2.35-11.27a.5.5 0 0 1 1-.2l2.35 11.27a.5.5 0 0 1-.39.59zM28.54 37.27a.5.5 0 0 1-.49-.4L25.7 25.6a.5.5 0 1 1 1-.2L29 36.66a.5.5 0 0 1-.39.59z" transform="translate(-3.7 -3.94)" fill="#92d0ee"/><path d="M7 24.94a.38.38 0 0 1 0-.74l2-.41a.38.38 0 1 1 .15.73l-2 .41zM11 24.12a.38.38 0 0 1-.08-.74l2-.41a.38.38 0 1 1 .15.73l-2 .41zM14.87 23.31a.38.38 0 0 1-.08-.74l2-.41a.38.38 0 0 1 .15.73l-2 .41z" transform="translate(-3.7 -3.94)" fill="#289ed8"/><path d="M15.7 60.88a2.19 2.19 0 0 1-2.14-1.75l-7-34.46-2.83-13.51a1.71 1.71 0 0 1 1.33-2l22.15-4.64a1.71 1.71 0 0 1 2 1.33L32 19.35l7 34.48a2.19 2.19 0 0 1-1.7 2.58l-21.15 4.42a2.21 2.21 0 0 1-.45.05zM27.56 5.49h-.15L5.26 10.11a.71.71 0 0 0-.55.84L7.64 25l6.9 33.91a1.19 1.19 0 0 0 1.41.93l21.22-4.42a1.19 1.19 0 0 0 .92-1.4l-7-34.48-2.83-13.49a.71.71 0 0 0-.7-.56zM5.16 9.63z" transform="translate(-3.7 -3.94)" fill="#123456"/><rect x="13.35" y="10.18" width="8.79" height="8.79" rx="4.4" ry="4.4" transform="rotate(-11.76 -3.247 30.576)" fill="#289ed8"/><path d="M44.4 60.5a.87.87 0 0 1-.31.06H17.82a1.12 1.12 0 0 1-1-1.19V22.51a1.15 1.15 0 0 1 .86-1.17h.19-.2a.91.91 0 0 1-.85-1V5.4a.91.91 0 0 1 .85-1h26.71a.91.91 0 0 1 .84 1v15a.9.9 0 0 1-.85 1h-.2.17a1.15 1.15 0 0 1 .87 1.17v36.85a1.18 1.18 0 0 1-.81 1.08z" transform="translate(-3.7 -3.94)" fill="#d8eff6"/><path fill="#92cfec" d="M15.34.5h2.27v56.09h-2.27z"/><path d="M44.31 21.33h-.2.17-26.64.19-.2a.91.91 0 0 1-.85-1V5.4a.91.91 0 0 1 .85-1h26.75a.91.91 0 0 1 .84 1v15a.9.9 0 0 1-.91.93z" transform="translate(-3.7 -3.94)" fill="#92cfec"/><path d="M18.63 21.68h-1a.38.38 0 0 1 0-.75h1a.38.38 0 0 1 0 .75zM41.4 21.7h-1.9a.38.38 0 1 1 0-.75h1.9a.38.38 0 1 1 0 .75zM37.6 21.7h-1.9a.38.38 0 1 1 0-.75h1.9a.38.38 0 1 1 0 .75zM33.81 21.7h-1.9a.38.38 0 0 1 0-.75h1.9a.38.38 0 1 1 0 .75zM30 21.69h-1.9a.38.38 0 0 1 0-.75H30a.38.38 0 0 1 0 .75zM26.22 21.69h-1.9a.38.38 0 0 1 0-.75h1.9a.38.38 0 0 1 0 .75zM22.43 21.69h-1.9a.38.38 0 0 1 0-.75h1.9a.38.38 0 0 1 0 .75zM44.3 21.71h-1a.38.38 0 1 1 0-.75h1a.38.38 0 1 1 0 .75z" transform="translate(-3.7 -3.94)" fill="#289ed8"/><rect x="21.88" y="37.89" width=".78" height="15.87" rx=".36" ry=".36" fill="#92cfec"/><rect x="25.42" y="21.21" width=".78" height="32.56" rx=".36" ry=".36" fill="#92cfec"/><path d="M44.08 61.06 17.8 61a1.62 1.62 0 0 1-1.55-1.69V22.45a1.77 1.77 0 0 1 .39-1.12 1.51 1.51 0 0 1-.39-1V5.4a1.52 1.52 0 0 1 .37-1 1.24 1.24 0 0 1 1-.45l26.7.05a1.41 1.41 0 0 1 1.35 1.46v15a1.53 1.53 0 0 1-.39 1 1.77 1.77 0 0 1 .39 1.12v36.85a1.62 1.62 0 0 1-1.59 1.63zM17.82 21.81a.63.63 0 0 0-.55.69v36.85a.63.63 0 0 0 .55.69H44.1a.63.63 0 0 0 .55-.68V22.5a.76.76 0 0 0-.18-.51.49.49 0 0 0-.36-.18.5.5 0 0 1 0-1h.2a.3.3 0 0 0 .21-.09.51.51 0 0 0 .14-.36v-15c0-.25-.16-.46-.35-.46H17.62a.3.3 0 0 0-.22.11.53.53 0 0 0-.12.35v15c0 .25.16.46.35.46h.2a.5.5 0 0 1 0 1z" transform="translate(-3.7 -3.94)" fill="#123456"/><circle cx="27.19" cy="8.81" r="4.98" fill="#279ed9"/><path d="m38 34-6.55 18.72 6.22-3.9 5-13.38z" transform="translate(-3.7 -3.94)" fill="#92d0ee"/><path d="M31.45 53.22a.5.5 0 0 1-.47-.67l6.55-18.76a.49.49 0 0 1 .6-.32l4.7 1.53a.5.5 0 0 1 .32.65L38.14 49a.5.5 0 0 1-.2.25l-6.22 3.9a.5.5 0 0 1-.27.07zm6.86-18.63-5.92 17 4.87-3.05L42 35.76z" transform="translate(-3.7 -3.94)" fill="#123456"/><path d="m47.38 36.66-6.55 18.76-3.2-6.61 5-13.38z" transform="translate(-3.7 -3.94)" fill="#289ed8"/><path d="M40.83 55.91a.5.5 0 0 1-.45-.28L37.18 49a.5.5 0 0 1 0-.39l5-13.38a.5.5 0 0 1 .59-.31l4.77 1.24a.5.5 0 0 1 .3.25.5.5 0 0 1 0 .39L41.3 55.58a.5.5 0 0 1-.44.33zm-2.66-7.13 2.58 5.33 6-17.11-3.79-1z" transform="translate(-3.7 -3.94)" fill="#123456"/><path d="m52.88 34.26 5.63 19-6.06-4.14-4.3-13.57z" transform="translate(-3.7 -3.94)" fill="#92d0ee"/><path d="M58.51 53.76a.5.5 0 0 1-.28-.09l-6.06-4.14a.51.51 0 0 1-.19-.26L47.67 35.7a.5.5 0 0 1 .34-.63l4.75-1.3a.5.5 0 0 1 .59.34l5.63 19a.5.5 0 0 1-.48.64zm-5.64-5 4.76 3.25-5.1-17.19-3.76 1z" transform="translate(-3.7 -3.94)" fill="#123456"/><path d="m43.4 36.58 5.63 19 3.46-6.47-4.3-13.57z" transform="translate(-3.7 -3.94)" fill="#289ed8"/><path d="M49 56.08a.5.5 0 0 1-.43-.35l-5.63-19a.5.5 0 0 1 .36-.63l4.81-1a.5.5 0 0 1 .58.34L53 49a.49.49 0 0 1 0 .39l-3.46 6.47a.5.5 0 0 1-.54.22zM44 37l5.13 17.32L52 49.06l-4.1-12.93z" transform="translate(-3.7 -3.94)" fill="#123456"/><path d="M59.17 29.15a27.2 27.2 0 0 1-3.44-2.9 30.31 30.31 0 0 1 .8-4.05 1.87 1.87 0 0 0-2.22-2.35s-4.17.64-4.42.53-2.36-3.57-2.36-3.57a1.87 1.87 0 0 0-3.23-.09s-2.44 3.37-2.66 3.46-4.28-.82-4.28-.82A1.87 1.87 0 0 0 35 21.58s.66 4.12.56 4.34S32 28.36 32 28.36a1.87 1.87 0 0 0-.09 3.23s3.37 2.44 3.46 2.66-.82 4.28-.82 4.28a1.87 1.87 0 0 0 2.22 2.35s4.21-.62 4.48-.5 2.3 3.54 2.3 3.54a1.87 1.87 0 0 0 3.23.09s2.45-3.38 2.69-3.47 4.26.83 4.26.83a1.87 1.87 0 0 0 2.27-2.2s-.68-4.09-.58-4.3 3.62-2.48 3.62-2.48a1.87 1.87 0 0 0 .13-3.24z" transform="translate(-3.7 -3.94)" fill="#92d0ee"/><path d="M45.15 45.42h-.07a2.34 2.34 0 0 1-2-1.24c-.84-1.37-1.81-2.9-2.12-3.32-.42 0-2.39.27-4.15.53a2.37 2.37 0 0 1-2.77-3c.35-1.58.72-3.39.79-3.95-.42-.37-1.9-1.48-3.25-2.45a2.37 2.37 0 0 1 .15-4.08c1.37-.87 2.9-1.88 3.35-2.22 0-.56-.3-2.4-.56-4a2.37 2.37 0 0 1 3-2.78c1.58.35 3.39.72 3.95.79.37-.42 1.48-1.9 2.45-3.25A2.29 2.29 0 0 1 46 15.33a2.34 2.34 0 0 1 2 1.24c.84 1.35 1.82 2.87 2.15 3.32.57 0 2.44-.28 4.11-.53a2.32 2.32 0 0 1 2.23.69 2.34 2.34 0 0 1 .55 2.3 37.8 37.8 0 0 0-.79 3.75 31.68 31.68 0 0 0 3.24 2.64 2.37 2.37 0 0 1-.14 4.09c-1.37.88-2.92 1.91-3.37 2.26 0 .56.31 2.38.58 4a2.37 2.37 0 0 1-3 2.78c-1.58-.35-3.37-.73-3.92-.8-.38.42-1.5 1.91-2.47 3.26a2.32 2.32 0 0 1-2.02 1.09zM41 39.89a.8.8 0 0 1 .36 0c.17.08.32.14 2.53 3.74a1.37 1.37 0 0 0 1.18.74 1.4 1.4 0 0 0 1.2-.65c2.56-3.53 2.78-3.62 2.94-3.68s.35-.14 4.54.81a1.38 1.38 0 0 0 1.36-.31 1.35 1.35 0 0 0 .39-1.31c-.71-4.27-.62-4.46-.55-4.62s.17-.37 3.81-2.7a1.38 1.38 0 0 0 .75-1.18 1.36 1.36 0 0 0-.65-1.2c-2.25-1.67-3.46-2.72-3.61-3.12-.05-.14-.18-.48.78-4.34a1.37 1.37 0 0 0-1.62-1.75c-4.35.67-4.59.56-4.74.5s-.33-.15-2.58-3.76a1.37 1.37 0 0 0-1.18-.75 1.39 1.39 0 0 0-1.21.65c-2.54 3.53-2.76 3.61-2.91 3.67s-.37.14-4.57-.8a1.37 1.37 0 0 0-1.37.31 1.35 1.35 0 0 0-.39 1.31c.69 4.3.6 4.51.53 4.67s-.16.35-3.79 2.65a1.37 1.37 0 0 0-.73 1.23 1.35 1.35 0 0 0 .65 1.2c3.52 2.54 3.61 2.76 3.66 2.91s.14.37-.8 4.57a1.37 1.37 0 0 0 .31 1.32 1.35 1.35 0 0 0 1.31.39 39.9 39.9 0 0 1 4.4-.5zm8.95-20z" transform="translate(-3.7 -3.94)" fill="#123456"/><path d="M54.11 27.78a9 9 0 0 1-17.54 1.9v.52a9 9 0 1 0 17.58-2.41z" transform="translate(-3.7 -3.94)" fill="#faa919"/><path d="M45 36.06a9 9 0 0 0 9.12-8.28 9 9 0 0 0-17.54 1.9A9 9 0 0 0 45 36.06z" transform="translate(-3.7 -3.94)" fill="#ffcc05"/><path d="M45.52 39.86h-.19a9.48 9.48 0 1 1 9.67-9.3 9.49 9.49 0 0 1-9.48 9.3zm0-18a8.48 8.48 0 0 0-.17 17A8.53 8.53 0 0 0 54 30.54a8.49 8.49 0 0 0-8.31-8.65z" transform="translate(-3.7 -3.94)" fill="#123456"/><path d="M50.56 26.32a1.12 1.12 0 0 0-1.57.19L44.68 32l-2-2.05a1.12 1.12 0 0 0-1.61 1.55l2.87 3a1.13 1.13 0 0 0 .81.34h.06a1.12 1.12 0 0 0 .82-.43l5.1-6.49a1.12 1.12 0 0 0-.17-1.6z" transform="translate(-3.7 -3.94)" fill="#289ed8"/><path d="M49.07 14a1 1 0 0 1-1-.81l-.87-4.57a1 1 0 0 1 2-.38l.89 4.53a1 1 0 0 1-.79 1.17zM52.93 15a1 1 0 0 1-.93-1.46l2.33-4.61a1 1 0 0 1 1.79.9l-2.33 4.61a1 1 0 0 1-.86.56zM56.83 17.1a1 1 0 0 1-.62-1.79l3.48-2.72a1 1 0 0 1 1.23 1.58l-3.48 2.72a1 1 0 0 1-.61.21z" transform="translate(-3.7 -3.94)" fill="#ffcc05"/></svg>